<?xml version="1.0" encoding="UTF-8" standalone="no"?>
<svg
   xmlns:dc="http://purl.org/dc/elements/1.1/"
   xmlns:cc="http://creativecommons.org/ns#"
   xmlns:rdf="http://www.w3.org/1999/02/22-rdf-syntax-ns#"
   xmlns:svg="http://www.w3.org/2000/svg"
   xmlns="http://www.w3.org/2000/svg"
   xmlns:sodipodi="http://sodipodi.sourceforge.net/DTD/sodipodi-0.dtd"
   xmlns:inkscape="http://www.inkscape.org/namespaces/inkscape"
   version="1.1"
   viewBox="0 0 444.56207 72.996927"
   stroke="none"
   id="svg6"
   sodipodi:docname="DynaUPWheel_Project_Logo_white_2023.svg"
   inkscape:version="1.0.2-2 (e86c870879, 2021-01-15)"
   width="444.56207"
   height="72.996925">
  <metadata
     id="metadata12">
    <rdf:RDF>
      <cc:Work
         rdf:about="">
        <dc:format>image/svg+xml</dc:format>
        <dc:type
           rdf:resource="http://purl.org/dc/dcmitype/StillImage" />
        <dc:title />
      </cc:Work>
    </rdf:RDF>
  </metadata>
  <defs
     id="defs10">
    <marker
       style="overflow:visible"
       id="marker1216"
       refX="0.0"
       refY="0.0"
       orient="auto"
       inkscape:stockid="Arrow1Lstart"
       inkscape:isstock="true">
      <path
         transform="scale(0.8) translate(12.5,0)"
         style="fill-rule:evenodd;stroke:#000000;stroke-width:1.0pt"
         d="M 0.0,0.0 L 5.0,-5.0 L -12.5,0.0 L 5.0,5.0 L 0.0,0.0 z "
         id="path1214" />
    </marker>
    <marker
       style="overflow:visible"
       id="marker1182"
       refX="0.0"
       refY="0.0"
       orient="auto"
       inkscape:stockid="Arrow1Lstart"
       inkscape:isstock="true">
      <path
         transform="scale(0.8) translate(12.5,0)"
         style="fill-rule:evenodd;stroke:#000000;stroke-width:1.0pt"
         d="M 0.0,0.0 L 5.0,-5.0 L -12.5,0.0 L 5.0,5.0 L 0.0,0.0 z "
         id="path1180" />
    </marker>
    <marker
       style="overflow:visible"
       id="marker1154"
       refX="0.0"
       refY="0.0"
       orient="auto"
       inkscape:stockid="Arrow1Lstart"
       inkscape:isstock="true">
      <path
         transform="scale(0.8) translate(12.5,0)"
         style="fill-rule:evenodd;stroke:#000000;stroke-width:1.0pt"
         d="M 0.0,0.0 L 5.0,-5.0 L -12.5,0.0 L 5.0,5.0 L 0.0,0.0 z "
         id="path1152" />
    </marker>
    <marker
       style="overflow:visible"
       id="marker1132"
       refX="0.0"
       refY="0.0"
       orient="auto"
       inkscape:stockid="Arrow1Lstart"
       inkscape:isstock="true">
      <path
         transform="scale(0.8) translate(12.5,0)"
         style="fill-rule:evenodd;stroke:#000000;stroke-width:1.0pt"
         d="M 0.0,0.0 L 5.0,-5.0 L -12.5,0.0 L 5.0,5.0 L 0.0,0.0 z "
         id="path1130" />
    </marker>
    <marker
       style="overflow:visible;"
       id="Arrow1Lend"
       refX="0.0"
       refY="0.0"
       orient="auto"
       inkscape:stockid="Arrow1Lend"
       inkscape:isstock="true">
      <path
         transform="scale(0.8) rotate(180) translate(12.5,0)"
         style="fill-rule:evenodd;stroke:#000000;stroke-width:1.0pt;"
         d="M 0.0,0.0 L 5.0,-5.0 L -12.5,0.0 L 5.0,5.0 L 0.0,0.0 z "
         id="path854" />
    </marker>
    <marker
       style="overflow:visible"
       id="Arrow1Lstart"
       refX="0.0"
       refY="0.0"
       orient="auto"
       inkscape:stockid="Arrow1Lstart"
       inkscape:isstock="true">
      <path
         transform="scale(0.8) translate(12.5,0)"
         style="fill-rule:evenodd;stroke:#000000;stroke-width:1.0pt"
         d="M 0.0,0.0 L 5.0,-5.0 L -12.5,0.0 L 5.0,5.0 L 0.0,0.0 z "
         id="path851" />
    </marker>
  </defs>
  <sodipodi:namedview
     pagecolor="#ffffff"
     bordercolor="#666666"
     borderopacity="1"
     objecttolerance="10"
     gridtolerance="10"
     guidetolerance="10"
     inkscape:pageopacity="0"
     inkscape:pageshadow="2"
     inkscape:window-width="1920"
     inkscape:window-height="991"
     id="namedview8"
     showgrid="false"
     showguides="false"
     inkscape:zoom="2.6812904"
     inkscape:cx="222.28104"
     inkscape:cy="36.498463"
     inkscape:window-x="-9"
     inkscape:window-y="-9"
     inkscape:window-maximized="1"
     inkscape:current-layer="svg6"
     inkscape:document-rotation="0" />
  <g
     aria-label="DynaUPWheel"
     id="text841-3-9"
     style="font-size:53.3333px;line-height:1.25;font-family:sans-serif;fill:#ff0000;stroke-width:0.5;stroke-miterlimit:4;stroke-dasharray:none"
     transform="translate(-462.70874,-87.763361)">
    <path
       d="m 505.51081,115.15677 c -1.85764,6.94444 -6.25868,10.41666 -13.20312,10.41666 h -28.95832 l 7.86458,-29.296857 2.13542,-7.994787 v 0 h 28.95831 c 5.46875,0 8.20312,2.152776 8.20312,6.458329 0,1.163194 -0.19097,2.482638 -0.57291,3.958331 z m -15.18229,-2.78646 2.91667,-10.88541 c 0.20833,-0.74653 0.30382,-1.40625 0.28646,-1.979162 0,-2.152777 -1.36285,-3.229165 -4.08854,-3.229165 h -2.29167 l -5.70312,21.302067 h 2.29167 c 3.47222,0 5.6684,-1.73611 6.58853,-5.20833 z"
       style="font-style:normal;font-variant:normal;font-weight:normal;font-stretch:normal;font-size:53.3333px;font-family:'Infinite Justice';-inkscape-font-specification:'Infinite Justice';text-align:center;text-anchor:middle;fill:#ffffff;stroke:none;stroke-width:0.5;stroke-miterlimit:4;stroke-dasharray:none;stroke-opacity:1"
       id="path1113"
       sodipodi:nodetypes="csccccsscccccsccsc" />
    <path
       d="M 546.34411,96.276573 522.516,135.13072 h -12.57812 l 5.75521,-9.63541 -2.5,-29.218737 h 12.55208 l 0.88541,10.781247 6.40625,-10.781247 z"
       style="font-style:normal;font-variant:normal;font-weight:normal;font-stretch:normal;font-size:53.3333px;font-family:'Infinite Justice';-inkscape-font-specification:'Infinite Justice';text-align:center;text-anchor:middle;fill:#ffffff;stroke:none;stroke-width:0.5;stroke-miterlimit:4;stroke-dasharray:none;stroke-opacity:1"
       id="path1115" />
    <path
       d="m 574.7816,125.57343 h -13.33333 l 5.07812,-18.93228 q 0.28646,-1.11979 0.3125,-1.92708 0,-2.5 -2.6302,-2.5 -3.51563,0 -4.71354,4.45312 l -5.07812,18.90624 H 541.0837 l 7.86458,-29.296857 h 13.33333 l -0.26042,0.989583 q 3.125,-1.25 8.51562,-1.25 9.66145,0 9.66145,7.473954 0,1.92708 -0.67708,4.375 z"
       style="font-style:normal;font-variant:normal;font-weight:normal;font-stretch:normal;font-size:53.3333px;font-family:'Infinite Justice';-inkscape-font-specification:'Infinite Justice';text-align:center;text-anchor:middle;fill:#ffffff;stroke:none;stroke-width:0.5;stroke-miterlimit:4;stroke-dasharray:none;stroke-opacity:1"
       id="path1117" />
    <path
       d="m 613.66178,125.57343 h -13.33333 l 0.28646,-1.06771 q -3.17708,1.32813 -6.95312,1.32813 -14.34895,0 -14.34895,-6.53646 0,-0.91146 0.28646,-1.95312 1.27604,-4.79167 6.30208,-6.84896 3.07291,-1.24999 9.73958,-1.84895 6.66666,-0.59896 9.76562,-1.90104 l 0.20833,-0.78125 q 0.18229,-0.67709 0.18229,-1.22396 0.0521,-2.42187 -3.28125,-2.42187 -4.08854,0 -5.18229,3.64583 h -14.0104 q 5.1302,-9.947914 20.8854,-9.947914 14.45312,0 14.47916,8.958324 0,1.84896 -0.57292,4.01042 z m -11.01562,-8.64583 1.01563,-3.80208 q -1.09375,0.44271 -3.51563,0.72917 -2.39583,0.28646 -3.54166,0.75521 -1.875,0.78124 -2.29167,2.3177 -0.10416,0.41667 -0.10416,0.78125 0,1.97917 3.54166,1.97917 4.16667,0 4.89583,-2.76042 z"
       style="font-style:normal;font-variant:normal;font-weight:normal;font-stretch:normal;font-size:53.3333px;font-family:'Infinite Justice';-inkscape-font-specification:'Infinite Justice';text-align:center;text-anchor:middle;fill:#ffffff;stroke:none;stroke-width:0.5;stroke-miterlimit:4;stroke-dasharray:none;stroke-opacity:1"
       id="path1119" />
    <path
       d="m 662.04717,115.13073 c -1.875,6.9618 -6.28472,10.4427 -13.22916,10.4427 h -21.61457 c -5.46875,0 -8.20312,-2.17014 -8.20312,-6.51041 0,-1.14583 0.19965,-2.4566 0.59896,-3.93229 l 5.05208,-18.854157 2.13541,-7.994787 v 0 h 15.9375 l -6.45833,24.088524 c -0.19097,0.72917 -0.28646,1.38889 -0.28646,1.97917 0,2.15277 1.37153,3.22916 4.11458,3.22916 3.57639,0 5.82465,-1.73611 6.74479,-5.20833 l 6.45833,-24.088524 15.93749,-0.02604 z"
       style="font-style:normal;font-variant:normal;font-weight:normal;font-stretch:normal;font-size:53.3333px;font-family:'Infinite Justice';-inkscape-font-specification:'Infinite Justice';text-align:center;text-anchor:middle;fill:#9b0014;fill-opacity:1;stroke:#ffffff;stroke-width:0.5;stroke-miterlimit:4;stroke-dasharray:none;stroke-opacity:1"
       id="path1121"
       sodipodi:nodetypes="csssccccccsscccc" />
    <path
       d="m 708.03673,102.05782 c -1.85764,6.94444 -6.25868,10.41666 -13.20312,10.41666 h -13.02082 l -3.51563,13.09895 h -15.93749 l 7.86458,-29.296857 2.13542,-7.994787 v 0 h 28.95831 c 5.46875,0 8.20312,2.152776 8.20312,6.458329 0,1.163194 -0.19097,2.482638 -0.57291,3.958331 z m -15.46874,-1.69271 c 0.12153,-0.486109 0.18229,-0.920136 0.18229,-1.30208 0,-1.857638 -1.43229,-2.786457 -4.29687,-2.786457 h -2.29167 l -2.21354,8.203117 h 2.29167 c 3.47222,0 5.58159,-1.37153 6.32812,-4.11458 z"
       style="font-style:normal;font-variant:normal;font-weight:normal;font-stretch:normal;font-size:53.3333px;font-family:'Infinite Justice';-inkscape-font-specification:'Infinite Justice';text-align:center;text-anchor:middle;fill:#9b0014;fill-opacity:1;stroke:#ffffff;stroke-width:0.5;stroke-miterlimit:4;stroke-dasharray:none;stroke-opacity:1"
       id="path1123"
       sodipodi:nodetypes="csccccccsscccssccsc" />
    <path
       d="m 772.93252,88.281786 -21.3802,37.291644 -16.04166,-0.026 0.625,-11.71874 -5.59895,11.74478 h -16.09374 l -0.91146,-29.296857 -0.23437,-7.994787 v 0 h 16.30207 l -3.22916,25.130194 10.28645,-25.130194 h 12.68228 l -3.22916,25.104154 10.28645,-25.104154 z"
       style="font-style:normal;font-variant:normal;font-weight:normal;font-stretch:normal;font-size:53.3333px;font-family:'Infinite Justice';-inkscape-font-specification:'Infinite Justice';text-align:center;text-anchor:middle;fill:#ffffff;stroke:none;stroke-width:0.5;stroke-miterlimit:4;stroke-dasharray:none;stroke-opacity:1"
       id="path1125"
       sodipodi:nodetypes="cccccccccccccccc" />
    <path
       d="m 798.19293,125.57343 h -13.30728 l 5.07812,-18.93228 q 0.3125,-1.11979 0.3125,-1.95312 0,-2.47396 -2.63021,-2.47396 -3.54166,0 -4.73958,4.45312 l -5.07812,18.90624 h -13.33333 l 10,-37.291644 h 13.33332 l -2.39583,8.98437 q 3.125,-1.25 8.51562,-1.25 9.66145,0 9.66145,7.473954 0,1.92708 -0.67708,4.375 z"
       style="font-style:normal;font-variant:normal;font-weight:normal;font-stretch:normal;font-size:53.3333px;font-family:'Infinite Justice';-inkscape-font-specification:'Infinite Justice';text-align:center;text-anchor:middle;fill:#ffffff;stroke:none;stroke-width:0.5;stroke-miterlimit:4;stroke-dasharray:none;stroke-opacity:1"
       id="path1127" />
    <path
       d="m 843.08872,112.89115 h -22.9427 l -0.59896,2.23958 q -0.3125,1.11979 -0.3125,1.95312 0,2.47396 2.63021,2.47396 3.48958,0 4.47917,-3.64583 h 15.52082 q -5.07812,9.92187 -21.66665,9.92187 -16.3802,0 -16.3802,-9.71354 0,-1.79687 0.59896,-3.98437 l 0.62499,-2.42188 q 3.67188,-13.697904 23.12499,-13.697904 16.40624,0 16.40624,9.635414 0,1.875 -0.625,4.08854 z m -14.5052,-5.18229 0.28646,-1.04167 q 0.28645,-1.06771 0.28645,-1.90104 0.0521,-2.55208 -2.60416,-2.55208 -3.51562,0 -4.71354,4.45312 l -0.28646,1.04167 z"
       style="font-style:normal;font-variant:normal;font-weight:normal;font-stretch:normal;font-size:53.3333px;font-family:'Infinite Justice';-inkscape-font-specification:'Infinite Justice';text-align:center;text-anchor:middle;fill:#ffffff;stroke:none;stroke-width:0.5;stroke-miterlimit:4;stroke-dasharray:none;stroke-opacity:1"
       id="path1129" />
    <path
       d="m 884.07828,112.89115 h -22.94269 l -0.59896,2.23958 q -0.3125,1.11979 -0.3125,1.95312 0,2.47396 2.6302,2.47396 3.48959,0 4.47917,-3.64583 h 15.52082 q -5.07812,9.92187 -21.66665,9.92187 -16.3802,0 -16.3802,-9.71354 0,-1.79687 0.59896,-3.98437 l 0.625,-2.42188 q 3.67187,-13.697904 23.12498,-13.697904 16.40624,0 16.40624,9.635414 0,1.875 -0.625,4.08854 z m -14.5052,-5.18229 0.28646,-1.04167 q 0.28646,-1.06771 0.28646,-1.90104 0.0521,-2.55208 -2.60417,-2.55208 -3.51562,0 -4.71354,4.45312 l -0.28646,1.04167 z"
       style="font-style:normal;font-variant:normal;font-weight:normal;font-stretch:normal;font-size:53.3333px;font-family:'Infinite Justice';-inkscape-font-specification:'Infinite Justice';text-align:center;text-anchor:middle;fill:#ffffff;stroke:none;stroke-width:0.5;stroke-miterlimit:4;stroke-dasharray:none;stroke-opacity:1"
       id="path1131" />
    <path
       d="m 896.63036,125.57343 h -13.33333 l 10,-37.291644 h 13.33332 z"
       style="font-style:normal;font-variant:normal;font-weight:normal;font-stretch:normal;font-size:53.3333px;font-family:'Infinite Justice';-inkscape-font-specification:'Infinite Justice';text-align:center;text-anchor:middle;fill:#ffffff;stroke:none;stroke-width:0.5;stroke-miterlimit:4;stroke-dasharray:none;stroke-opacity:1"
       id="path1133" />
  </g>
  <g
     aria-label="Project"
     id="text1015-2-6"
     style="font-style:normal;font-weight:normal;font-size:33.3333px;line-height:1.25;font-family:sans-serif;fill:#000000;fill-opacity:1;stroke:none;stroke-width:0.5;stroke-miterlimit:4;stroke-dasharray:none;"
     transform="translate(-462.70874,-87.763361)">
    <path
       d="m 773.79223,140.56551 c -1.16103,4.34027 -3.91168,6.51041 -8.25195,6.51041 h -8.13801 l -2.19726,8.18684 h -9.96093 l 4.91536,-18.31053 1.33463,-4.99674 v 0 h 18.09894 c 3.41797,0 5.12695,1.34549 5.12695,4.03646 0,0.72699 -0.11936,1.55164 -0.35807,2.47395 z m -9.66796,-1.05794 c 0.0759,-0.30382 0.11393,-0.57509 0.11393,-0.8138 0,-1.16103 -0.89518,-1.74154 -2.68554,-1.74154 h -1.43229 l -1.38347,5.12695 h 1.43229 c 2.17014,0 3.4885,-0.8572 3.95508,-2.57161 z"
       style="font-style:normal;font-variant:normal;font-weight:normal;font-stretch:normal;font-size:33.3333px;font-family:'Infinite Justice';-inkscape-font-specification:'Infinite Justice';fill:#9b0014;fill-opacity:1;stroke:#ffffff;stroke-width:0.5;stroke-miterlimit:4;stroke-dasharray:none;stroke-opacity:1"
       id="path1136"
       sodipodi:nodetypes="csccccccsscccssccsc" />
    <path
       d="m 791.27268,140.98869 q -1.88802,-0.32552 -3.87369,-0.32552 -3.33659,0 -4.39453,3.92252 l -2.86458,10.67707 h -8.33333 l 4.91536,-18.31053 h 8.33333 l -0.16276,0.61849 q 2.08333,-0.78125 4.32942,-0.78125 2.24609,0 3.15755,0.0651 z"
       style="font-style:normal;font-variant:normal;font-weight:normal;font-stretch:normal;font-size:33.3333px;font-family:'Infinite Justice';-inkscape-font-specification:'Infinite Justice';fill:#9b0014;fill-opacity:1;stroke:#ffffff;stroke-width:0.5;stroke-miterlimit:4;stroke-dasharray:none;stroke-opacity:1"
       id="path1138" />
    <path
       d="m 815.32865,146.84806 q -2.29492,8.57746 -14.45312,8.57746 -10.30272,0 -10.23762,-6.13606 0.0163,-1.12305 0.37435,-2.4414 l 0.39063,-1.4974 q 2.29492,-8.56119 14.45311,-8.56119 10.23762,0 10.23762,6.07096 0,1.13932 -0.37435,2.49023 z m -10.46549,1.88801 1.41602,-5.2897 q 0.17903,-0.69987 0.17903,-1.20443 0,-1.5625 -1.64388,-1.5625 -2.19726,0 -2.92968,2.76693 l -1.41602,5.2897 q -0.19531,0.69987 -0.19531,1.20443 0,1.5625 1.64388,1.5625 2.19726,0 2.94596,-2.76693 z"
       style="font-style:normal;font-variant:normal;font-weight:normal;font-stretch:normal;font-size:33.3333px;font-family:'Infinite Justice';-inkscape-font-specification:'Infinite Justice';fill:#9b0014;fill-opacity:1;stroke:#ffffff;stroke-width:0.5;stroke-miterlimit:4;stroke-dasharray:none;stroke-opacity:1"
       id="path1140" />
    <path
       d="m 828.26809,135.71525 h -8.33332 l 1.00911,-3.75976 h 8.33332 z m -6.57551,24.54425 h -8.33333 l 6.24999,-23.30727 h 8.33333 z"
       style="font-style:normal;font-variant:normal;font-weight:normal;font-stretch:normal;font-size:33.3333px;font-family:'Infinite Justice';-inkscape-font-specification:'Infinite Justice';fill:#9b0014;fill-opacity:1;stroke:#ffffff;stroke-width:0.5;stroke-miterlimit:4;stroke-dasharray:none;stroke-opacity:1"
       id="path1142" />
    <path
       d="M 851.08708,147.33634 H 836.7479 l -0.37435,1.39973 q -0.19531,0.69987 -0.19531,1.22071 0,1.54622 1.64388,1.54622 2.18098,0 2.79947,-2.27864 h 9.70051 q -3.17382,6.20116 -13.54165,6.20116 -10.23762,0 -10.23762,-6.07096 0,-1.12304 0.37435,-2.49023 l 0.39062,-1.51367 q 2.29492,-8.56119 14.45311,-8.56119 10.2539,0 10.2539,6.02213 0,1.17188 -0.39062,2.55534 z m -9.06575,-3.23893 0.17904,-0.65104 q 0.17903,-0.66732 0.17903,-1.18815 0.0326,-1.59505 -1.6276,-1.59505 -2.19726,0 -2.94596,2.7832 l -0.17904,0.65104 z"
       style="font-style:normal;font-variant:normal;font-weight:normal;font-stretch:normal;font-size:33.3333px;font-family:'Infinite Justice';-inkscape-font-specification:'Infinite Justice';fill:#9b0014;fill-opacity:1;stroke:#ffffff;stroke-width:0.5;stroke-miterlimit:4;stroke-dasharray:none;stroke-opacity:1"
       id="path1144" />
    <path
       d="m 876.18471,148.73607 q -3.04361,6.68945 -13.78579,6.68945 -10.22135,0 -10.23762,-6.05468 0,-1.1556 0.37435,-2.50651 l 0.39062,-1.51367 q 2.29492,-8.56119 14.45311,-8.56119 10.23762,0 10.23762,6.03841 0,0.30924 -0.0163,0.61849 h -9.79817 q 0.17904,-0.69987 0.17904,-1.22071 0,-1.54622 -1.64388,-1.54622 -2.19727,0 -2.92969,2.76693 l -1.41601,5.2897 q -0.19531,0.69987 -0.19531,1.20443 0,1.5625 1.64387,1.5625 2.19727,0 2.94597,-2.76693 z"
       style="font-style:normal;font-variant:normal;font-weight:normal;font-stretch:normal;font-size:33.3333px;font-family:'Infinite Justice';-inkscape-font-specification:'Infinite Justice';fill:#9b0014;fill-opacity:1;stroke:#ffffff;stroke-width:0.5;stroke-miterlimit:4;stroke-dasharray:none;stroke-opacity:1"
       id="path1146" />
    <path
       d="m 895.76477,141.94897 h -4.06901 l -3.56445,13.31379 h -8.33332 l 3.56445,-13.31379 h -4.06901 l 1.35091,-4.99674 h 4.06901 l 1.33463,-4.99674 h 8.33333 l -1.33464,4.99674 h 4.06901 z"
       style="font-style:normal;font-variant:normal;font-weight:normal;font-stretch:normal;font-size:33.3333px;font-family:'Infinite Justice';-inkscape-font-specification:'Infinite Justice';fill:#9b0014;fill-opacity:1;stroke:#ffffff;stroke-width:0.5;stroke-miterlimit:4;stroke-dasharray:none;stroke-opacity:1"
       id="path1148" />
  </g>
</svg>
